<svg width="27" height="27" viewBox="0 0 27 27" fill="none" xmlns="http://www.w3.org/2000/svg">
<path d="M13.4797 0C14.9499 0 16.1406 1.2123 16.1406 2.7081L16.1284 2.92815C17.3002 3.40335 18.4329 4.19175 19.4373 5.23665C20.601 6.4422 21.2814 8.0406 21.4906 10.0913V17.4866L23.0985 20.3188C23.6385 21.218 23.8113 21.9713 23.3901 22.6233C23.004 23.2186 22.3141 23.4265 21.3786 23.4104H17.7741C17.3529 25.461 15.5682 27 13.4325 27C11.2941 27 9.51075 25.461 9.0909 23.4117H5.1003L5.0247 23.4077C4.17825 23.3348 3.5478 22.9257 3.40605 22.1387C3.3102 21.6027 3.4371 21.0276 3.76785 20.3418L5.4216 17.3988L5.42565 10.0103C5.5701 8.37675 6.18165 6.8553 7.24545 5.4594C8.1459 4.27815 9.43245 3.40875 10.8283 2.9079C10.8228 2.84144 10.8201 2.77478 10.8202 2.7081C10.8202 1.2123 12.0109 0 13.4797 0ZM15.934 23.4117H10.9309C11.3022 24.4512 12.2809 25.1937 13.4325 25.1937C14.5827 25.1937 15.5628 24.4512 15.934 23.4117ZM13.6107 4.2174C11.7828 4.2174 9.77265 5.08815 8.64675 6.5664C7.78545 7.695 7.30485 8.8911 7.1955 10.0899V17.6364C7.1955 17.7943 7.155 17.9496 7.07805 18.086L5.3352 21.1856C5.26765 21.3199 5.2134 21.4605 5.1732 21.6054H21.3921C21.5554 21.6081 21.6796 21.6014 21.7647 21.5986C21.7082 21.4759 21.6446 21.3564 21.5743 21.2409L19.8369 18.1805C19.7588 18.0425 19.7179 17.8867 19.7181 17.7282L19.7221 10.1871C19.5588 8.6184 19.039 7.4007 18.171 6.4989C16.767 5.0409 15.1173 4.2174 13.6107 4.2174ZM13.4797 1.80495C13.2828 1.80631 13.0918 1.87289 12.9367 1.99429C12.7816 2.11568 12.6711 2.28504 12.6225 2.4759C12.9546 2.43405 13.284 2.41245 13.6107 2.41245C13.8496 2.41245 14.0913 2.42595 14.3329 2.45565C14.2807 2.26922 14.1692 2.10487 14.0153 1.98746C13.8613 1.87006 13.6733 1.80599 13.4797 1.80495Z" fill="#73767B"/>
</svg>
