<svg width="48" height="48" viewBox="0 0 48 48" fill="none" xmlns="http://www.w3.org/2000/svg">
<g filter="url(#filter0_d_7_357)">
<circle cx="24.0234" cy="20.9381" r="16.4766" fill="url(#paint0_angular_7_357)"/>
<ellipse cx="24.1257" cy="21.0405" rx="13.9181" ry="13.9181" fill="white"/>
<path d="M10.6405 16.8909C9.81064 17.2917 8.81769 16.8702 8.52954 15.9949C8.1199 14.7504 9.36715 13.6031 10.5731 14.115C11.7791 14.6269 11.8202 16.3211 10.6405 16.8909Z" fill="#3162C9"/>
<g filter="url(#filter1_d_7_357)">
<path fill-rule="evenodd" clip-rule="evenodd" d="M23.3436 21.8855C23.0743 21.7012 22.8976 21.3915 22.8976 21.0405V13.672C22.8976 13.1068 23.3558 12.6487 23.921 12.6487C24.4862 12.6487 24.9444 13.1068 24.9444 13.672V20.5917L32.0035 27.6508C32.4032 28.0505 32.4032 28.6985 32.0035 29.0981C31.6039 29.4978 30.9559 29.4978 30.5562 29.0981L23.3436 21.8855Z" fill="url(#paint1_linear_7_357)"/>
</g>
</g>
<defs>
<filter id="filter0_d_7_357" x="0.546814" y="0.461517" width="46.9532" height="46.9532" filterUnits="userSpaceOnUse" color-interpolation-filters="sRGB">
<feFlood flood-opacity="0" result="BackgroundImageFix"/>
<feColorMatrix in="SourceAlpha" type="matrix" values="0 0 0 0 0 0 0 0 0 0 0 0 0 0 0 0 0 0 127 0" result="hardAlpha"/>
<feOffset dy="3"/>
<feGaussianBlur stdDeviation="3.5"/>
<feComposite in2="hardAlpha" operator="out"/>
<feColorMatrix type="matrix" values="0 0 0 0 0 0 0 0 0 0 0 0 0 0 0 0 0 0 0.2 0"/>
<feBlend mode="normal" in2="BackgroundImageFix" result="effect1_dropShadow_7_357"/>
<feBlend mode="normal" in="SourceGraphic" in2="effect1_dropShadow_7_357" result="shape"/>
</filter>
<filter id="filter1_d_7_357" x="17.8976" y="9.64865" width="19.4056" height="26.7492" filterUnits="userSpaceOnUse" color-interpolation-filters="sRGB">
<feFlood flood-opacity="0" result="BackgroundImageFix"/>
<feColorMatrix in="SourceAlpha" type="matrix" values="0 0 0 0 0 0 0 0 0 0 0 0 0 0 0 0 0 0 127 0" result="hardAlpha"/>
<feOffset dy="2"/>
<feGaussianBlur stdDeviation="2.5"/>
<feComposite in2="hardAlpha" operator="out"/>
<feColorMatrix type="matrix" values="0 0 0 0 0 0 0 0 0 0 0 0 0 0 0 0 0 0 0.15 0"/>
<feBlend mode="normal" in2="BackgroundImageFix" result="effect1_dropShadow_7_357"/>
<feBlend mode="normal" in="SourceGraphic" in2="effect1_dropShadow_7_357" result="shape"/>
</filter>
<radialGradient id="paint0_angular_7_357" cx="0" cy="0" r="1" gradientUnits="userSpaceOnUse" gradientTransform="translate(23.6141 21.7057) rotate(-154.449) scale(12.9313)">
<stop stop-color="#3061C8"/>
<stop offset="1" stop-color="#6ABCFB"/>
</radialGradient>
<linearGradient id="paint1_linear_7_357" x1="31.7141" y1="29.3876" x2="23.0689" y2="20.4722" gradientUnits="userSpaceOnUse">
<stop offset="0.0885417" stop-color="#414347"/>
<stop offset="1" stop-color="#6B6E70"/>
</linearGradient>
</defs>
</svg>
