<svg width="29" height="29" viewBox="0 0 29 29" fill="none" xmlns="http://www.w3.org/2000/svg">
<g clip-path="url(#clip0_1_54)">
<path d="M14 14C15.873 14 17.57 14.62 18.815 15.487C19.998 16.312 21 17.538 21 18.857C21 19.581 20.691 20.181 20.204 20.627C19.746 21.048 19.148 21.321 18.532 21.507C17.301 21.88 15.68 22 14 22C12.32 22 10.699 21.88 9.468 21.507C8.852 21.321 8.254 21.048 7.795 20.627C7.31 20.182 7 19.582 7 18.858C7 17.539 8.002 16.313 9.185 15.488C10.43 14.62 12.127 14 14 14ZM21 15C22.044 15 22.992 15.345 23.693 15.833C24.333 16.28 25 17.023 25 17.929C25 18.446 24.775 18.875 24.44 19.182C24.134 19.463 23.756 19.628 23.411 19.732C22.941 19.874 22.386 19.947 21.81 19.979C21.932 19.634 22 19.259 22 18.857C22 17.322 21.041 16.018 19.968 15.113C20.3069 15.038 20.6529 15.0001 21 15ZM7 15C7.357 15 7.703 15.04 8.032 15.113C6.96 16.018 6 17.322 6 18.857C6 19.259 6.068 19.634 6.19 19.979C5.614 19.947 5.06 19.874 4.589 19.732C4.244 19.628 3.866 19.463 3.559 19.182C3.38288 19.0245 3.24204 18.8315 3.1457 18.6157C3.04937 18.4 2.99971 18.1663 3 17.93C3 17.025 3.666 16.281 4.307 15.834C5.09975 15.2902 6.03868 14.9994 7 15ZM20.5 9C21.163 9 21.7989 9.26339 22.2678 9.73223C22.7366 10.2011 23 10.837 23 11.5C23 12.163 22.7366 12.7989 22.2678 13.2678C21.7989 13.7366 21.163 14 20.5 14C19.837 14 19.2011 13.7366 18.7322 13.2678C18.2634 12.7989 18 12.163 18 11.5C18 10.837 18.2634 10.2011 18.7322 9.73223C19.2011 9.26339 19.837 9 20.5 9ZM7.5 9C8.16304 9 8.79893 9.26339 9.26777 9.73223C9.73661 10.2011 10 10.837 10 11.5C10 12.163 9.73661 12.7989 9.26777 13.2678C8.79893 13.7366 8.16304 14 7.5 14C6.83696 14 6.20108 13.7366 5.73223 13.2678C5.26339 12.7989 5 12.163 5 11.5C5 10.837 5.26339 10.2011 5.73223 9.73223C6.20108 9.26339 6.83696 9 7.5 9ZM14 5C15.0609 5 16.0783 5.42143 16.8284 6.17157C17.5786 6.92172 18 7.93913 18 9C18 10.0609 17.5786 11.0783 16.8284 11.8284C16.0783 12.5786 15.0609 13 14 13C12.9391 13 11.9217 12.5786 11.1716 11.8284C10.4214 11.0783 10 10.0609 10 9C10 7.93913 10.4214 6.92172 11.1716 6.17157C11.9217 5.42143 12.9391 5 14 5Z" fill="#73767B"/>
</g>
<circle cx="14.5" cy="14.5" r="13.75" stroke="#73767B" stroke-width="1.5"/>
<defs>
<clipPath id="clip0_1_54">
<rect width="24" height="24" fill="white" transform="translate(2 2)"/>
</clipPath>
</defs>
</svg>
