<svg width="29" height="29" viewBox="0 0 29 29" fill="none" xmlns="http://www.w3.org/2000/svg">
<path d="M26.4412 13.787L14.1736 1.28474C14.0853 1.19448 13.9804 1.12287 13.8649 1.07401C13.7494 1.02515 13.6256 1 13.5006 1C13.3755 1 13.2517 1.02515 13.1362 1.07401C13.0207 1.12287 12.9158 1.19448 12.8275 1.28474L0.559917 13.787C0.202523 14.1515 0 14.6466 0 15.163C0 16.2352 0.854767 17.1069 1.9061 17.1069H3.19868V26.028C3.19868 26.5656 3.62457 27 4.15173 27H11.5945V20.1961H14.9301V27H22.8494C23.3765 27 23.8024 26.5656 23.8024 26.028V17.1069H25.095C25.6013 17.1069 26.0868 16.9034 26.4442 16.5359C27.1858 15.7765 27.1858 14.5464 26.4412 13.787Z" fill="#1579F3"/>
</svg>
