<svg xmlns="http://www.w3.org/2000/svg" width="32" height="32" viewBox="0 0 32 32" fill="none">
  <path d="M19.7027 18.7173L23.236 13.4907C23.5853 12.976 22.9227 12.4173 22.416 12.7853L18.6053 15.472C18.4777 15.5607 18.3261 15.6083 18.1707 15.6083C18.0153 15.6083 17.8636 15.5607 17.736 15.472L14.9147 13.5027C14.0707 12.92 12.864 13.1333 12.2973 13.9493L8.76399 19.176C8.41466 19.6907 9.07732 20.2507 9.58399 19.8813L13.3947 17.1947C13.5222 17.106 13.6739 17.0584 13.8293 17.0584C13.9847 17.0584 14.1364 17.106 14.264 17.1947L17.0853 19.1307C17.9293 19.7467 19.136 19.5333 19.7027 18.7173Z" fill="#73767B"/>
  <path fill-rule="evenodd" clip-rule="evenodd" d="M16 3C12.5522 3 9.24559 4.36964 6.80762 6.80761C4.36965 9.24558 3.00001 12.5522 3.00001 16C2.99794 17.7529 3.35135 19.488 4.03886 21.1005C4.72638 22.7129 5.73372 24.1692 7.00001 25.3813V28.6667C6.99992 28.8251 7.03749 28.9814 7.10964 29.1225C7.18179 29.2636 7.28644 29.3855 7.41497 29.4782C7.5435 29.571 7.69222 29.6318 7.84888 29.6558C8.00554 29.6797 8.16565 29.6661 8.31601 29.616L12.0227 28.38C13.3082 28.792 14.6501 29.0012 16 29C23.18 29 29 23.18 29 16C29 8.82 23.18 3 16 3ZM5.00001 16C5.00091 13.6661 5.74411 11.393 7.12215 9.50936C8.50018 7.62573 10.4416 6.22922 12.6657 5.52177C14.8898 4.81432 17.2812 4.83261 19.4942 5.57399C21.7073 6.31537 23.6271 7.74141 24.9762 9.6459C26.3252 11.5504 27.0336 13.8346 26.9988 16.1682C26.964 18.5019 26.1879 20.7639 24.7826 22.6274C23.3774 24.4908 21.4159 25.859 19.1817 26.534C16.9476 27.2091 14.5567 27.1561 12.3547 26.3827C12.1453 26.309 11.9173 26.3071 11.7067 26.3773L9.00001 27.2787V24.9453C9.00019 24.8044 8.97059 24.6651 8.91315 24.5364C8.8557 24.4077 8.77171 24.2926 8.66668 24.1987C7.51169 23.1681 6.58787 21.9048 5.95592 20.4917C5.32396 19.0787 4.99819 17.5479 5.00001 16Z" fill="#73767B"/>
</svg>
