<svg width="32" height="31" viewBox="0 0 32 31" fill="none" xmlns="http://www.w3.org/2000/svg">
<circle cx="16" cy="15.5083" r="15.5" fill="#EDECF1"/>
<path d="M21.6426 13.0181C21.4235 12.808 21.1271 12.6901 20.8181 12.6901C20.5091 12.6901 20.2126 12.808 19.9935 13.0181L15.7946 17.0108L11.6542 13.0181C11.435 12.808 11.1386 12.6901 10.8296 12.6901C10.5206 12.6901 10.2242 12.808 10.005 13.0181C9.8954 13.123 9.80839 13.2477 9.74901 13.3851C9.68963 13.5226 9.65906 13.67 9.65906 13.8189C9.65906 13.9678 9.68963 14.1152 9.74901 14.2527C9.80839 14.3901 9.8954 14.5149 10.005 14.6197L14.9642 19.402C15.0729 19.5077 15.2023 19.5916 15.3448 19.6488C15.4873 19.7061 15.6402 19.7356 15.7946 19.7356C15.949 19.7356 16.1019 19.7061 16.2444 19.6488C16.3869 19.5916 16.5163 19.5077 16.625 19.402L21.6426 14.6197C21.7523 14.5149 21.8393 14.3901 21.8987 14.2527C21.958 14.1152 21.9886 13.9678 21.9886 13.8189C21.9886 13.67 21.958 13.5226 21.8987 13.3851C21.8393 13.2477 21.7523 13.123 21.6426 13.0181Z" fill="black"/>
</svg>
