<svg width="39" height="39" viewBox="0 0 39 39" fill="none" xmlns="http://www.w3.org/2000/svg">
<circle cx="19.475" cy="19.475" r="19.475" fill="#D9D9D9"/>
<g clip-path="url(#clip0_1_84)">
<path d="M22.0995 9.38753C21.4711 7.25746 18.4525 7.25746 17.8242 9.38753L17.672 9.90484C17.5781 10.2237 17.414 10.5176 17.1918 10.7648C16.9696 11.012 16.6948 11.2064 16.3877 11.3336C16.0806 11.4608 15.7489 11.5177 15.4169 11.5C15.085 11.4824 14.7612 11.3907 14.4693 11.2316L13.9976 10.9729C12.0456 9.91092 9.91092 12.0456 10.9744 13.9961L11.2316 14.4693C11.9102 15.7169 11.2666 17.2703 9.90484 17.672L9.38753 17.8242C7.25746 18.4525 7.25746 21.4711 9.38753 22.0995L9.90484 22.2517C10.2237 22.3456 10.5176 22.5096 10.7648 22.7319C11.012 22.9541 11.2064 23.2288 11.3336 23.536C11.4608 23.8431 11.5177 24.1748 11.5 24.5067C11.4824 24.8387 11.3907 25.1625 11.2316 25.4544L10.9729 25.9261C9.91092 27.8781 12.0456 30.0128 13.9961 28.9492L14.4693 28.6921C14.7612 28.533 15.085 28.4413 15.4169 28.4236C15.7489 28.406 16.0806 28.4628 16.3877 28.5901C16.6948 28.7173 16.9696 28.9116 17.1918 29.1589C17.414 29.4061 17.5781 29.6999 17.672 30.0188L17.8242 30.5361C18.4525 32.6662 21.4711 32.6662 22.0995 30.5361L22.2517 30.0188C22.3456 29.6999 22.5096 29.4061 22.7319 29.1589C22.9541 28.9116 23.2288 28.7173 23.536 28.5901C23.8431 28.4628 24.1748 28.406 24.5067 28.4236C24.8387 28.4413 25.1625 28.533 25.4544 28.6921L25.9261 28.9508C27.8781 30.0128 30.0128 27.8781 28.9492 25.9276L28.6921 25.4544C28.533 25.1625 28.4413 24.8387 28.4236 24.5067C28.406 24.1748 28.4628 23.8431 28.5901 23.536C28.7173 23.2288 28.9116 22.9541 29.1589 22.7319C29.4061 22.5096 29.6999 22.3456 30.0188 22.2517L30.5361 22.0995C32.6662 21.4711 32.6662 18.4525 30.5361 17.8242L30.0188 17.672C29.6999 17.5781 29.4061 17.414 29.1589 17.1918C28.9116 16.9696 28.7173 16.6948 28.5901 16.3877C28.4628 16.0806 28.406 15.7489 28.4236 15.4169C28.4413 15.085 28.533 14.7612 28.6921 14.4693L28.9508 13.9976C30.0128 12.0456 27.8781 9.91092 25.9276 10.9744L25.4544 11.2316C25.1625 11.3907 24.8387 11.4824 24.5067 11.5C24.1748 11.5177 23.8431 11.4608 23.536 11.3336C23.2288 11.2064 22.9541 11.012 22.7319 10.7648C22.5096 10.5176 22.3456 10.2237 22.2517 9.90484L22.0995 9.38753ZM19.9618 24.4198C18.7795 24.4198 17.6456 23.9501 16.8096 23.1141C15.9736 22.2781 15.5039 21.1442 15.5039 19.9618C15.5039 18.7795 15.9736 17.6456 16.8096 16.8096C17.6456 15.9736 18.7795 15.5039 19.9618 15.5039C21.1438 15.5039 22.2773 15.9734 23.113 16.8091C23.9487 17.6449 24.4183 18.7784 24.4183 19.9603C24.4183 21.1422 23.9487 22.2757 23.113 23.1115C22.2773 23.9472 21.1438 24.4167 19.9618 24.4167V24.4198Z" fill="#3C4147"/>
</g>
<defs>
<clipPath id="clip0_1_84">
<rect width="24.3437" height="24.3437" fill="white" transform="translate(7.78998 7.78998)"/>
</clipPath>
</defs>
</svg>
