<svg xmlns="http://www.w3.org/2000/svg" width="30" height="27" viewBox="0 0 30 27" fill="none">
  <path d="M2.5 7.875L8.0125 2.91375C8.24507 2.70319 8.52165 2.53613 8.82629 2.42221C9.13093 2.30829 9.45761 2.24977 9.7875 2.25H20.2125C20.5424 2.24977 20.8691 2.30829 21.1737 2.42221C21.4784 2.53613 21.7549 2.70319 21.9875 2.91375L27.5 7.875M5 13.5V22.5C5 23.0967 5.26339 23.669 5.73223 24.091C6.20107 24.5129 6.83696 24.75 7.5 24.75H22.5C23.163 24.75 23.7989 24.5129 24.2678 24.091C24.7366 23.669 25 23.0967 25 22.5V13.5" stroke="#73767B" stroke-width="2" stroke-linecap="round" stroke-linejoin="round"/>
  <path d="M18.75 24.75V20.25C18.75 19.6533 18.4866 19.081 18.0178 18.659C17.5489 18.2371 16.913 18 16.25 18H13.75C13.087 18 12.4511 18.2371 11.9822 18.659C11.5134 19.081 11.25 19.6533 11.25 20.25V24.75M2.5 7.875H27.5V11.25C27.5 11.8467 27.2366 12.419 26.7678 12.841C26.2989 13.2629 25.663 13.5 25 13.5C24.2697 13.4638 23.5722 13.2151 23.0125 12.7912C22.8634 12.6942 22.684 12.642 22.5 12.642C22.316 12.642 22.1366 12.6942 21.9875 12.7912C21.4278 13.2151 20.7303 13.4638 20 13.5C19.2697 13.4638 18.5722 13.2151 18.0125 12.7912C17.8634 12.6942 17.684 12.642 17.5 12.642C17.316 12.642 17.1366 12.6942 16.9875 12.7912C16.4278 13.2151 15.7303 13.4638 15 13.5C14.2697 13.4638 13.5722 13.2151 13.0125 12.7912C12.8634 12.6942 12.684 12.642 12.5 12.642C12.316 12.642 12.1366 12.6942 11.9875 12.7912C11.4278 13.2151 10.7303 13.4638 10 13.5C9.26967 13.4638 8.57216 13.2151 8.0125 12.7912C7.86335 12.6942 7.68402 12.642 7.5 12.642C7.31598 12.642 7.13665 12.6942 6.9875 12.7912C6.42784 13.2151 5.73033 13.4638 5 13.5C4.33696 13.5 3.70107 13.2629 3.23223 12.841C2.76339 12.419 2.5 11.8467 2.5 11.25V7.875Z" stroke="#73767B" stroke-width="2" stroke-linecap="round" stroke-linejoin="round"/>
</svg>
