<svg width="36" height="36" viewBox="0 0 36 36" fill="none" xmlns="http://www.w3.org/2000/svg">
<path d="M14.625 13.095V22.905C14.625 23.4675 15.2415 23.8118 15.7207 23.5193L23.0535 19.0373C23.2313 18.9288 23.3783 18.7764 23.4803 18.5948C23.5822 18.4131 23.6358 18.2083 23.6358 18C23.6358 17.7917 23.5822 17.5869 23.4803 17.4052C23.3783 17.2236 23.2313 17.0712 23.0535 16.9628L15.7185 12.483C15.6094 12.4168 15.4847 12.3808 15.3571 12.3786C15.2295 12.3765 15.1036 12.4083 14.9924 12.4708C14.8811 12.5333 14.7885 12.6242 14.7239 12.7343C14.6594 12.8444 14.6252 12.9674 14.625 13.095ZM10.125 6.75C8.63316 6.75 7.20242 7.34263 6.14752 8.39752C5.09263 9.45242 4.5 10.8832 4.5 12.375V23.625C4.5 25.1168 5.09263 26.5476 6.14752 27.6025C7.20242 28.6574 8.63316 29.25 10.125 29.25H25.875C27.3668 29.25 28.7976 28.6574 29.8525 27.6025C30.9074 26.5476 31.5 25.1168 31.5 23.625V12.375C31.5 10.8832 30.9074 9.45242 29.8525 8.39752C28.7976 7.34263 27.3668 6.75 25.875 6.75H10.125ZM6.75 12.375C6.75 11.4799 7.10558 10.6214 7.73851 9.98851C8.37145 9.35558 9.22989 9 10.125 9H25.875C26.7701 9 27.6286 9.35558 28.2615 9.98851C28.8944 10.6214 29.25 11.4799 29.25 12.375V23.625C29.25 24.5201 28.8944 25.3786 28.2615 26.0115C27.6286 26.6444 26.7701 27 25.875 27H10.125C9.22989 27 8.37145 26.6444 7.73851 26.0115C7.10558 25.3786 6.75 24.5201 6.75 23.625V12.375Z" fill="#73767B"/>
</svg>
